<svg viewBox="0 0 20 19" version="1.1"  xmlns="http://www.w3.org/2000/svg" fill="#97a6ba" fit="" height="100%" width="20" preserveAspectRatio="xMidYMid meet" focusable="false">
    <g id="chart-pie-solid">
        <path d="M19.4041 10.5881L10.6802 10.5881L16.4902 16.398C16.7122 16.6201 17.0777 16.6381 17.306 16.423C18.7288 15.0826 19.7074 13.2756 19.9946 11.2443C20.0438 10.8965 19.7552 10.5881 19.4041 10.5881L19.4041 10.5881ZM18.8221 8.20574C18.5192 3.81383 15.0096 0.304271 10.6177 0.00132942C10.2824 -0.0218323 10.0001 0.260888 10.0001 0.596918L10.0001 8.82339L18.2269 8.82339C18.5629 8.82339 18.8453 8.54103 18.8221 8.20574ZM8.23537 10.5881L8.23537 1.8642C8.23537 1.51309 7.92692 1.22449 7.57949 1.27376C3.19824 1.89287 -0.150655 5.72045 0.00522741 10.3076C0.165522 15.0186 4.22177 18.8818 8.93501 18.8227C10.7879 18.7995 12.5001 18.2024 13.9078 17.2039C14.1982 16.998 14.2174 16.5704 13.9655 16.3186L8.23537 10.5881Z" id="Shape" fill="currentColor" stroke="none"></path>
    </g>
</svg>