<?xml version="1.0" encoding="UTF-8"?>
<svg width="20px" height="12px" viewBox="0 0 20 12" version="1.1" xmlns="http://www.w3.org/2000/svg" xmlns:xlink="http://www.w3.org/1999/xlink">
    <!-- Generator: Sketch 52.6 (67491) - http://www.bohemiancoding.com/sketch -->
    <title>Shape</title>
    <desc>Created with Sketch.</desc>
    <g id="Symbols" stroke="none" stroke-width="1" fill="none" fill-rule="evenodd">
        <g id="icons/20-20-android" transform="translate(0.000000, -4.000000)" fill="#A4C739" fill-rule="nonzero">
            <path d="M14.6024306,12.4393747 C14.1421933,12.4393747 13.7690972,12.0662786 13.7690972,11.6060413 C13.7690972,11.145804 14.1421933,10.772708 14.6024306,10.772708 C15.0626678,10.772708 15.4357639,11.145804 15.4357639,11.6060413 C15.4357639,12.0662786 15.0626678,12.4393747 14.6024306,12.4393747 M5.39756944,12.4393747 C4.93733215,12.4393747 4.56423611,12.0662786 4.56423611,11.6060413 C4.56423611,11.145804 4.93733215,10.772708 5.39756944,10.772708 C5.85780674,10.772708 6.23090278,11.145804 6.23090278,11.6060413 C6.23090278,12.0662786 5.85780674,12.4393747 5.39756944,12.4393747 M14.9010417,7.422708 L16.565625,4.54076355 C16.6378018,4.43319859 16.6441016,4.29440013 16.5819658,4.18073899 C16.51983,4.06707784 16.3995913,3.99745495 16.2700827,4.00014656 C16.1405741,4.00283816 16.0233319,4.07739668 15.9659722,4.19354133 L14.2805556,7.11263855 C11.5575195,5.8913496 8.44248053,5.8913496 5.71944444,7.11263855 L4.03402778,4.19354133 C3.97666807,4.07739668 3.8594259,4.00283816 3.72991732,4.00014656 C3.60040874,3.99745495 3.48017001,4.06707784 3.41803419,4.18073899 C3.35589837,4.29440013 3.36219816,4.43319859 3.434375,4.54076355 L5.09895833,7.422708 C2.240625,8.97722188 0.286111111,11.8706247 0,15.2890274 L20,15.2890274 C19.7138889,11.8706247 17.7590278,8.97722188 14.9010417,7.422708" id="Shape"></path>
        </g>
    </g>
</svg>