<?xml version="1.0" encoding="UTF-8"?>
<svg width="18px" height="20px" viewBox="0 0 18 20" version="1.1" xmlns="http://www.w3.org/2000/svg" xmlns:xlink="http://www.w3.org/1999/xlink">
    <!-- Generator: Sketch 52.6 (67491) - http://www.bohemiancoding.com/sketch -->
    <title>Shape</title>
    <desc>Created with Sketch.</desc>
    <g id="Symbols" stroke="none" stroke-width="1" fill="none" fill-rule="evenodd">
        <g id="icons/20-20-apple" transform="translate(-1.000000, 0.000000)" fill="#9CA3B2" fill-rule="nonzero">
            <path d="M15.5491071,10.5669643 C15.5401786,8.92857143 16.28125,7.69196429 17.78125,6.78125 C16.9419643,5.58035714 15.6741071,4.91964286 14,4.79017857 C12.4151786,4.66517857 10.6830357,5.71428571 10.0491071,5.71428571 C9.37946429,5.71428571 7.84375,4.83482143 6.63839286,4.83482143 C4.14732143,4.875 1.5,6.82142857 1.5,10.78125 C1.5,11.9508929 1.71428571,13.1592262 2.14285714,14.40625 C2.71428571,16.0446429 4.77678571,20.0625 6.92857143,19.9955357 C8.05357143,19.96875 8.84821429,19.1964286 10.3125,19.1964286 C11.7321429,19.1964286 12.46875,19.9955357 13.7232143,19.9955357 C15.8928571,19.9642857 17.7589286,16.3125 18.3035714,14.6696429 C15.3928571,13.2991071 15.5491071,10.6517857 15.5491071,10.5669643 Z M13.0223214,3.23660714 C14.2410714,1.79017857 14.1294643,0.473214286 14.09375,1.77635684e-14 C13.0178571,0.0625 11.7723214,0.732142857 11.0625,1.55803571 C10.28125,2.44196429 9.82142857,3.53571429 9.91964286,4.76785714 C11.0848214,4.85714286 12.1473214,4.25892857 13.0223214,3.23660714 Z" id="Shape"></path>
        </g>
    </g>
</svg>