<svg width="20" height="20" viewBox="0 0 20 20" fill="none" xmlns="http://www.w3.org/2000/svg">
<circle cx="10" cy="10" r="10" fill="#C00C2D"/>
<path fill-rule="evenodd" clip-rule="evenodd" d="M6.00524 6.00521C6.13651 5.87398 6.31453 5.80026 6.50014 5.80026C6.68576 5.80026 6.86377 5.87398 6.99504 6.00521L10.0001 9.01031L13.0052 6.00521C13.0698 5.93835 13.1471 5.88502 13.2325 5.84833C13.3179 5.81165 13.4097 5.79234 13.5027 5.79153C13.5956 5.79072 13.6878 5.80843 13.7738 5.84363C13.8598 5.87883 13.938 5.9308 14.0037 5.99653C14.0694 6.06225 14.1214 6.14041 14.1566 6.22644C14.1918 6.31247 14.2095 6.40464 14.2087 6.49759C14.2079 6.59053 14.1886 6.68239 14.1519 6.76779C14.1152 6.85319 14.0619 6.93043 13.995 6.99501L10.9899 10.0001L13.995 13.0052C14.1226 13.1372 14.1931 13.314 14.1915 13.4976C14.1899 13.6811 14.1163 13.8567 13.9865 13.9865C13.8567 14.1163 13.6812 14.1899 13.4976 14.1915C13.3141 14.1931 13.1373 14.1225 13.0052 13.995L10.0001 10.9899L6.99504 13.995C6.86302 14.1225 6.6862 14.1931 6.50266 14.1915C6.31912 14.1899 6.14356 14.1163 6.01377 13.9865C5.88398 13.8567 5.81037 13.6811 5.80877 13.4976C5.80718 13.314 5.87773 13.1372 6.00524 13.0052L9.01034 10.0001L6.00524 6.99501C5.87401 6.86374 5.80029 6.68572 5.80029 6.50011C5.80029 6.31449 5.87401 6.13648 6.00524 6.00521Z" fill="white"/>
</svg>
