<svg width="18" height="18" viewBox="0 0 18 18" fill="none" xmlns="http://www.w3.org/2000/svg">
<path d="M11.6976 9.00043C11.6976 10.4304 10.4877 11.5896 8.99511 11.5896C7.50255 11.5896 6.29259 10.4304 6.29259 9.00043C6.29259 7.57045 7.50255 6.41125 8.99511 6.41125C10.4877 6.41124 11.6976 7.57047 11.6976 9.00043ZM9 3.60938C7.45462 3.61623 5.85279 3.99245 4.33644 4.71273C3.21057 5.26956 2.11335 6.05517 1.16091 7.02484C0.69312 7.51983 0.096465 8.23656 0 9.00128C0.0114 9.66369 0.72195 10.4813 1.16091 10.9777C2.05405 11.9093 3.1227 12.673 4.33644 13.2904C5.75051 13.9767 7.31568 14.3718 9 14.3938C10.5468 14.3868 12.1483 14.0062 13.663 13.2904C14.7889 12.7336 15.8866 11.9474 16.8391 10.9777C17.3069 10.4827 17.9035 9.76599 18 9.00128C17.9886 8.33886 17.278 7.52121 16.8391 7.02482C15.9459 6.09323 14.8767 5.33013 13.663 4.7127C12.2497 4.02696 10.6806 3.63456 9 3.60938ZM8.99886 4.9481C11.3406 4.9481 13.239 6.76301 13.239 9.00186C13.239 11.2407 11.3406 13.0556 8.99886 13.0556C6.65707 13.0556 4.75873 11.2407 4.75873 9.00186C4.75873 6.76301 6.65707 4.9481 8.99886 4.9481Z" fill="black"/>
</svg>
