<svg width="18" height="18" viewBox="0 0 18 18" fill="none" xmlns="http://www.w3.org/2000/svg">
<path d="M10.0459 4.10461C9.70254 4.06747 9.35365 4.04618 9 4.04089C7.45462 4.04774 5.85265 4.42364 4.3363 5.14393C3.21044 5.70076 2.11371 6.48687 1.16125 7.45654C0.69348 7.95154 0.096465 8.66827 0 9.43298C0.0114 10.0954 0.722295 10.913 1.16125 11.4094C2.0544 12.341 3.12257 13.1046 4.3363 13.7221C4.37755 13.7421 4.41895 13.7619 4.46044 13.7814L3.33436 15.7479L4.86444 16.6522L13.1357 2.25168L11.6629 1.35156L10.0459 4.10461ZM13.5384 5.08679L12.4145 7.03465C12.9316 7.70638 13.2385 8.53474 13.2385 9.43298C13.2385 11.6718 11.3407 13.4869 8.99889 13.4869C8.89766 13.4869 8.79954 13.476 8.70006 13.4694L7.95628 14.757C8.2993 14.7937 8.64614 14.8205 8.99999 14.8251C10.5468 14.8181 12.1479 14.4379 13.6626 13.7221C14.7885 13.1652 15.8863 12.3791 16.8387 11.4094C17.3065 10.9145 17.9035 10.1977 18 9.43298C17.9886 8.77056 17.2777 7.95294 16.8387 7.45653C15.9456 6.52494 14.8763 5.76133 13.6626 5.1439C13.6216 5.12404 13.5797 5.10617 13.5384 5.08679ZM8.9989 5.37904C9.10159 5.37904 9.20348 5.38315 9.30432 5.39002L8.4331 6.89844C7.21039 7.14633 6.29296 8.18664 6.29296 9.4319C6.29296 9.74471 6.35058 10.0442 6.45666 10.3218C6.45678 10.3221 6.45654 10.3226 6.45666 10.3229L5.58324 11.8357C5.06497 11.1633 4.75926 10.3323 4.75926 9.43296C4.75927 7.19413 6.65712 5.37902 8.9989 5.37904ZM11.5334 8.55957L9.57019 11.9609C10.7863 11.7084 11.6971 10.6728 11.6971 9.4319C11.6971 9.12479 11.6359 8.83281 11.5334 8.55957Z" fill="black"/>
</svg>
