<svg width="18" height="18" viewBox="0 0 18 18" fill="none" xmlns="http://www.w3.org/2000/svg">
<path fill-rule="evenodd" clip-rule="evenodd" d="M0 9C0 6.61303 0.948212 4.32386 2.63604 2.63604C4.32386 0.948212 6.61303 0 9 0C11.387 0 13.6761 0.948212 15.364 2.63604C17.0518 4.32386 18 6.61303 18 9C18 11.387 17.0518 13.6761 15.364 15.364C13.6761 17.0518 11.387 18 9 18C6.61303 18 4.32386 17.0518 2.63604 15.364C0.948212 13.6761 0 11.387 0 9ZM8.48638 12.852L13.668 6.37442L12.732 5.62562L8.31358 11.1468L5.184 8.5392L4.416 9.4608L8.48638 12.8532V12.852Z" fill="#4CAF50"/>
</svg>
