<svg width="20" height="20" viewBox="0 0 20 20" fill="none" xmlns="http://www.w3.org/2000/svg">
<path d="M5 3C4.46957 3 3.96086 3.21071 3.58579 3.58579C3.21071 3.96086 3 4.46957 3 5V15C3 15.5304 3.21071 16.0391 3.58579 16.4142C3.96086 16.7893 4.46957 17 5 17H15C15.5304 17 16.0391 16.7893 16.4142 16.4142C16.7893 16.0391 17 15.5304 17 15V5C17 4.46957 16.7893 3.96086 16.4142 3.58579C16.0391 3.21071 15.5304 3 15 3H5ZM10.5 6.5V9.5H13.5C13.6326 9.5 13.7598 9.55268 13.8536 9.64645C13.9473 9.74022 14 9.86739 14 10C14 10.1326 13.9473 10.2598 13.8536 10.3536C13.7598 10.4473 13.6326 10.5 13.5 10.5H10.5V13.5C10.5 13.6326 10.4473 13.7598 10.3536 13.8536C10.2598 13.9473 10.1326 14 10 14C9.86739 14 9.74022 13.9473 9.64645 13.8536C9.55268 13.7598 9.5 13.6326 9.5 13.5V10.5H6.5C6.36739 10.5 6.24022 10.4473 6.14645 10.3536C6.05268 10.2598 6 10.1326 6 10C6 9.86739 6.05268 9.74022 6.14645 9.64645C6.24022 9.55268 6.36739 9.5 6.5 9.5H9.5V6.5C9.5 6.36739 9.55268 6.24022 9.64645 6.14645C9.74022 6.05268 9.86739 6 10 6C10.1326 6 10.2598 6.05268 10.3536 6.14645C10.4473 6.24022 10.5 6.36739 10.5 6.5Z" fill="white"/>
</svg>
