<?xml version="1.0" encoding="UTF-8"?>
<svg width="34px" height="56px" viewBox="0 0 34 56" version="1.1" xmlns="http://www.w3.org/2000/svg" xmlns:xlink="http://www.w3.org/1999/xlink">
    <!-- Generator: Sketch 52.6 (67491) - http://www.bohemiancoding.com/sketch -->
    <title>icon/tell us more/smartphone</title>
    <desc>Created with Sketch.</desc>
    <g id="Page-1" stroke="none" stroke-width="1" fill="none" fill-rule="evenodd">
        <g id="Verify-SDK---Step-1" transform="translate(-395.000000, -336.000000)">
            <g id="card" transform="translate(340.000000, 212.000000)">
                <g id="selection-card" transform="translate(32.000000, 112.000000)">
                    <g id="icon/tell-us-more/smartphone" transform="translate(23.000000, 12.000000)">
                        <path d="M28,0 L5.25,0 C2.35050506,-1.7754286e-16 0,2.35050506 0,5.25 L0,50.75 C0,53.6494949 2.35050506,56 5.25,56 L28,56 C30.8994949,56 33.25,53.6494949 33.25,50.75 L33.25,5.25 C33.25,2.35050506 30.8994949,1.7754286e-16 28,0 Z" id="Path" fill="#D8D8D8" fill-rule="nonzero"></path>
                        <path d="M18.4625,51.7125 C17.977845,52.2070874 17.3173943,52.4901377 16.625,52.5 C15.5748027,52.4852473 14.634493,51.8459175 14.2345911,50.8747272 C13.8346892,49.9035369 14.0521857,48.7874633 14.7875,48.0375 C15.825882,47.0812427 17.424118,47.0812427 18.4625,48.0375 C19.4630001,49.0582142 19.4630001,50.6917858 18.4625,51.7125 Z" id="Path" fill="#0C0D13" fill-rule="nonzero"></path>
                        <polygon id="Path" fill="#0C0D13" points="29.75 43.75 3.5 43.75 3.5 7 29.75 7"></polygon>
                    </g>
                </g>
            </g>
        </g>
    </g>
</svg>