<svg width="32" height="32" viewBox="0 0 32 32" fill="none" xmlns="http://www.w3.org/2000/svg">
<path d="M9.99853 14.6667C11.1031 14.6667 11.9985 13.7713 11.9985 12.6667C11.9985 11.5622 11.1031 10.6667 9.99853 10.6667C8.89397 10.6667 7.99854 11.5622 7.99854 12.6667C7.99854 13.7713 8.89397 14.6667 9.99853 14.6667Z" fill="#7C7C7C"/>
<path d="M13.9985 18.6666L11.9985 15.9999L7.99854 21.3333H23.9985L17.9985 13.3333L13.9985 18.6666Z" fill="#7C7C7C"/>
<path d="M26.665 5.33325H5.33171C3.86104 5.33325 2.66504 6.52925 2.66504 7.99992V23.9999C2.66504 25.4706 3.86104 26.6666 5.33171 26.6666H26.665C28.1357 26.6666 29.3317 25.4706 29.3317 23.9999V7.99992C29.3317 6.52925 28.1357 5.33325 26.665 5.33325ZM5.33171 23.9999V7.99992H26.665L26.6677 23.9999H5.33171Z" fill="#7C7C7C"/>
</svg>